<?xml version="1.0" encoding="UTF-8"?>
<!DOCTYPE svg PUBLIC "-//W3C//DTD SVG 1.1//EN" "http://www.w3.org/Graphics/SVG/1.1/DTD/svg11.dtd">
<svg xmlns="http://www.w3.org/2000/svg" version="1.1" width="512px" height="512px" style="shape-rendering:geometricPrecision; text-rendering:geometricPrecision; image-rendering:optimizeQuality; fill-rule:evenodd; clip-rule:evenodd" xmlns:xlink="http://www.w3.org/1999/xlink">
<g><path style="opacity:0.998" fill="#000000" d="M 291.5,37.5 C 290.59,39.0188 289.757,40.6854 289,42.5C 287.933,43.1905 286.766,43.6905 285.5,44C 241.835,44.5 198.168,44.6667 154.5,44.5C 154.5,82.5 154.5,120.5 154.5,158.5C 221.833,158.5 289.167,158.5 356.5,158.5C 356.5,120.5 356.5,82.5 356.5,44.5C 343.496,44.6666 330.496,44.4999 317.5,44C 315.266,42.3621 313.933,40.1955 313.5,37.5C 313.081,34.6755 314.081,32.5088 316.5,31C 333.5,30.3333 350.5,30.3333 367.5,31C 368.333,31.8333 369.167,32.6667 370,33.5C 370.5,49.8299 370.667,66.1633 370.5,82.5C 405.168,82.3333 439.835,82.5 474.5,83C 482.333,85.5 487.5,90.6667 490,98.5C 490.667,201.833 490.667,305.167 490,408.5C 487.5,416.333 482.333,421.5 474.5,424C 459.5,424.667 444.5,424.667 429.5,424C 427.081,422.491 426.081,420.325 426.5,417.5C 426.933,414.805 428.266,412.638 430.5,411C 443.5,410.667 456.5,410.333 469.5,410C 473,409.167 475.167,407 476,403.5C 476.667,303.167 476.667,202.833 476,102.5C 474.74,99.5719 472.573,97.7386 469.5,97C 436.502,96.5 403.502,96.3334 370.5,96.5C 370.5,99.8333 370.5,103.167 370.5,106.5C 400.835,106.333 431.168,106.5 461.5,107C 463.286,107.785 464.786,108.951 466,110.5C 466.667,194.833 466.667,279.167 466,363.5C 465.167,365.667 463.667,367.167 461.5,368C 323.833,368.667 186.167,368.667 48.5,368C 46.9512,366.786 45.7845,365.286 45,363.5C 44.3333,279.167 44.3333,194.833 45,110.5C 46.1667,109.333 47.3333,108.167 48.5,107C 79.1649,106.5 109.832,106.333 140.5,106.5C 140.5,103.167 140.5,99.8333 140.5,96.5C 107.165,96.3333 73.8317,96.5 40.5,97C 38.714,97.7845 37.214,98.9512 36,100.5C 34.6747,157.084 34.008,213.751 34,270.5C 32.5639,273.442 30.3972,275.442 27.5,276.5C 24.7672,276.052 22.6006,274.719 21,272.5C 20.3333,214.5 20.3333,156.5 21,98.5C 23.5,90.6667 28.6667,85.5 36.5,83C 71.1651,82.5 105.832,82.3333 140.5,82.5C 140.333,66.1633 140.5,49.8299 141,33.5C 141.833,32.6667 142.667,31.8333 143.5,31C 191.833,30.3333 240.167,30.3333 288.5,31C 290.451,32.7342 291.451,34.9009 291.5,37.5 Z"/></g>
<g><path style="opacity:1" fill="#fb9e01" d="M 291.5,37.5 C 298.833,37.5 306.167,37.5 313.5,37.5C 313.933,40.1955 315.266,42.3621 317.5,44C 330.496,44.4999 343.496,44.6666 356.5,44.5C 356.5,82.5 356.5,120.5 356.5,158.5C 289.167,158.5 221.833,158.5 154.5,158.5C 154.5,120.5 154.5,82.5 154.5,44.5C 198.168,44.6667 241.835,44.5 285.5,44C 286.766,43.6905 287.933,43.1905 289,42.5C 289.757,40.6854 290.59,39.0188 291.5,37.5 Z"/></g>
<g><path style="opacity:1" fill="#010000" d="M 197.5,70.5 C 204.508,70.3337 211.508,70.5004 218.5,71C 225.573,73.0724 230.406,77.5724 233,84.5C 233.667,98.8333 233.667,113.167 233,127.5C 229.721,133.091 225.721,133.758 221,129.5C 219.575,122.615 219.075,115.615 219.5,108.5C 212.167,108.5 204.833,108.5 197.5,108.5C 197.666,114.842 197.5,121.175 197,127.5C 192.578,134.059 188.245,134.059 184,127.5C 183.333,113.167 183.333,98.8333 184,84.5C 186.687,77.981 191.187,73.3143 197.5,70.5 Z"/></g>
<g><path style="opacity:1" fill="#020100" d="M 255.5,70.5 C 264.915,70.0828 274.248,70.5828 283.5,72C 293.732,77.2957 297.232,85.4623 294,96.5C 291.341,102.492 286.841,106.325 280.5,108C 275.511,108.499 270.511,108.666 265.5,108.5C 265.925,115.615 265.425,122.615 264,129.5C 259.098,133.986 255.098,133.319 252,127.5C 251.333,109.833 251.333,92.1667 252,74.5C 253.376,73.2949 254.542,71.9616 255.5,70.5 Z"/></g>
<g><path style="opacity:1" fill="#010000" d="M 317.5,70.5 C 321.426,70.0466 324.592,71.3799 327,74.5C 327.667,92.1667 327.667,109.833 327,127.5C 322.578,134.059 318.245,134.059 314,127.5C 313.333,109.833 313.333,92.1667 314,74.5C 315.376,73.2949 316.542,71.9616 317.5,70.5 Z"/></g>
<g><path style="opacity:1" fill="#f99d01" d="M 200.5,84.5 C 206.229,84.2123 211.896,84.5456 217.5,85.5C 219.27,88.1934 219.937,91.1934 219.5,94.5C 212.167,94.5 204.833,94.5 197.5,94.5C 196.858,90.5251 197.858,87.1918 200.5,84.5 Z"/></g>
<g><path style="opacity:1" fill="#f89c01" d="M 265.5,84.5 C 269.846,84.3343 274.179,84.501 278.5,85C 280.646,85.4788 281.646,86.8121 281.5,89C 281.516,91.3052 280.516,92.9718 278.5,94C 274.179,94.499 269.846,94.6657 265.5,94.5C 265.5,91.1667 265.5,87.8333 265.5,84.5 Z"/></g>
<g><path style="opacity:1" fill="#7f8bfe" d="M 426.5,417.5 C 419.167,417.5 411.833,417.5 404.5,417.5C 404.16,414.325 402.493,412.159 399.5,411C 279.833,410.667 160.167,410.333 40.5,410C 37.5719,408.74 35.7386,406.573 35,403.5C 34.6667,388.5 34.3333,373.5 34,358.5C 32.3621,356.266 30.1955,354.933 27.5,354.5C 27.5,347.167 27.5,339.833 27.5,332.5C 30.5618,332.159 32.7284,330.492 34,327.5C 34.6667,319.167 34.6667,310.833 34,302.5C 32.4369,299.977 30.2702,298.31 27.5,297.5C 27.5,290.5 27.5,283.5 27.5,276.5C 30.3972,275.442 32.5639,273.442 34,270.5C 34.008,213.751 34.6747,157.084 36,100.5C 37.214,98.9512 38.714,97.7845 40.5,97C 73.8317,96.5 107.165,96.3333 140.5,96.5C 140.5,99.8333 140.5,103.167 140.5,106.5C 109.832,106.333 79.1649,106.5 48.5,107C 47.3333,108.167 46.1667,109.333 45,110.5C 44.3333,194.833 44.3333,279.167 45,363.5C 45.7845,365.286 46.9512,366.786 48.5,368C 186.167,368.667 323.833,368.667 461.5,368C 463.667,367.167 465.167,365.667 466,363.5C 466.667,279.167 466.667,194.833 466,110.5C 464.786,108.951 463.286,107.785 461.5,107C 431.168,106.5 400.835,106.333 370.5,106.5C 370.5,103.167 370.5,99.8333 370.5,96.5C 403.502,96.3334 436.502,96.5 469.5,97C 472.573,97.7386 474.74,99.5719 476,102.5C 476.667,202.833 476.667,303.167 476,403.5C 475.167,407 473,409.167 469.5,410C 456.5,410.333 443.5,410.667 430.5,411C 428.266,412.638 426.933,414.805 426.5,417.5 Z"/></g>
<g><path style="opacity:1" fill="#e8f3fe" d="M 58.5,120.5 C 85.8333,120.5 113.167,120.5 140.5,120.5C 140.333,136.17 140.5,151.837 141,167.5C 141.785,169.286 142.951,170.786 144.5,172C 161.163,172.5 177.83,172.667 194.5,172.5C 194.5,183.833 194.5,195.167 194.5,206.5C 177.83,206.333 161.163,206.5 144.5,207C 143.333,208.167 142.167,209.333 141,210.5C 140.833,225.511 140.333,240.511 139.5,255.5C 121.105,264.302 116.272,277.968 125,296.5C 136.759,310.3 150.259,312.133 165.5,302C 178.394,286.623 177.394,272.29 162.5,259C 160.045,257.688 157.545,256.522 155,255.5C 154.5,243.838 154.333,232.171 154.5,220.5C 171.595,220.971 188.595,220.471 205.5,219C 206.701,218.097 207.535,216.931 208,215.5C 208.5,201.171 208.667,186.837 208.5,172.5C 221.833,172.5 235.167,172.5 248.5,172.5C 248.833,200.175 248.5,227.841 247.5,255.5C 227.632,265.611 223.466,280.278 235,299.5C 248.637,311.444 262.303,311.444 276,299.5C 287.617,280.024 283.284,265.357 263,255.5C 262.5,227.835 262.333,200.169 262.5,172.5C 275.833,172.5 289.167,172.5 302.5,172.5C 302.333,186.837 302.5,201.171 303,215.5C 303.785,217.286 304.951,218.786 306.5,220C 323.163,220.5 339.83,220.667 356.5,220.5C 356.832,232.186 356.499,243.852 355.5,255.5C 335.632,265.611 331.466,280.278 343,299.5C 353.705,309.626 365.538,311.126 378.5,304C 390.908,293.528 393.408,281.028 386,266.5C 382.125,261.291 377.125,257.624 371,255.5C 370.667,240.5 370.333,225.5 370,210.5C 368.786,208.951 367.286,207.785 365.5,207C 349.17,206.5 332.837,206.333 316.5,206.5C 316.5,195.167 316.5,183.833 316.5,172.5C 333.595,172.971 350.595,172.471 367.5,171C 368.701,170.097 369.535,168.931 370,167.5C 370.5,151.837 370.667,136.17 370.5,120.5C 397.833,120.5 425.167,120.5 452.5,120.5C 452.5,198.5 452.5,276.5 452.5,354.5C 321.167,354.5 189.833,354.5 58.5,354.5C 58.5,276.5 58.5,198.5 58.5,120.5 Z"/></g>
<g><path style="opacity:1" fill="#f8d32c" d="M 143.5,268.5 C 157.004,268.162 162.17,274.496 159,287.5C 153.879,294.712 147.379,296.212 139.5,292C 131.905,282.582 133.238,274.749 143.5,268.5 Z"/></g>
<g><path style="opacity:1" fill="#f8d32c" d="M 251.5,268.5 C 265.004,268.162 270.17,274.496 267,287.5C 261.879,294.712 255.379,296.212 247.5,292C 239.905,282.582 241.238,274.749 251.5,268.5 Z"/></g>
<g><path style="opacity:1" fill="#f8d32c" d="M 359.5,268.5 C 373.004,268.162 378.17,274.496 375,287.5C 369.879,294.712 363.379,296.212 355.5,292C 347.905,282.582 349.238,274.749 359.5,268.5 Z"/></g>
<g><path style="opacity:0.97" fill="#010102" d="M 27.5,297.5 C 30.2702,298.31 32.4369,299.977 34,302.5C 34.6667,310.833 34.6667,319.167 34,327.5C 32.7284,330.492 30.5618,332.159 27.5,332.5C 24.9009,332.451 22.7342,331.451 21,329.5C 20.3333,320.167 20.3333,310.833 21,301.5C 22.359,298.978 24.5257,297.645 27.5,297.5 Z"/></g>
<g><path style="opacity:0.994" fill="#000000" d="M 27.5,354.5 C 30.1955,354.933 32.3621,356.266 34,358.5C 34.3333,373.5 34.6667,388.5 35,403.5C 35.7386,406.573 37.5719,408.74 40.5,410C 160.167,410.333 279.833,410.667 399.5,411C 402.493,412.159 404.16,414.325 404.5,417.5C 404.919,420.325 403.919,422.491 401.5,424C 371.168,424.5 340.835,424.667 310.5,424.5C 310.5,438.5 310.5,452.5 310.5,466.5C 325.504,466.333 340.504,466.5 355.5,467C 359.5,471.333 359.5,475.667 355.5,480C 288.833,480.667 222.167,480.667 155.5,480C 151.5,475.667 151.5,471.333 155.5,467C 170.496,466.5 185.496,466.333 200.5,466.5C 200.5,452.5 200.5,438.5 200.5,424.5C 144.774,424.988 89.1076,424.488 33.5,423C 27.18,420.014 23.0133,415.181 21,408.5C 20.3333,391.5 20.3333,374.5 21,357.5C 22.5088,355.081 24.6755,354.081 27.5,354.5 Z"/></g>
<g><path style="opacity:1" fill="#6d74f2" d="M 214.5,424.5 C 241.833,424.5 269.167,424.5 296.5,424.5C 296.5,438.5 296.5,452.5 296.5,466.5C 269.167,466.5 241.833,466.5 214.5,466.5C 214.5,452.5 214.5,438.5 214.5,424.5 Z"/></g>
</svg>
