<?xml version="1.0" encoding="UTF-8"?>
<!DOCTYPE svg PUBLIC "-//W3C//DTD SVG 1.1//EN" "http://www.w3.org/Graphics/SVG/1.1/DTD/svg11.dtd">
<svg xmlns="http://www.w3.org/2000/svg" version="1.1" width="512px" height="512px" style="shape-rendering:geometricPrecision; text-rendering:geometricPrecision; image-rendering:optimizeQuality; fill-rule:evenodd; clip-rule:evenodd" xmlns:xlink="http://www.w3.org/1999/xlink">
<g><path style="opacity:0.992" fill="#8043d6" d="M 126.5,36.5 C 133.105,35.1836 139.771,35.5169 146.5,37.5C 146.5,66.5 146.5,95.5 146.5,124.5C 145.601,123.528 144.434,122.862 143,122.5C 138.539,123.345 134.039,123.678 129.5,123.5C 129.177,94.2209 128.177,65.2209 126.5,36.5 Z"/></g>
<g><path style="opacity:0.992" fill="#8741d8" d="M 126.5,36.5 C 128.177,65.2209 129.177,94.2209 129.5,123.5C 104.162,119.825 90.495,105.159 88.5,79.5C 89.9471,57.8892 100.947,43.7225 121.5,37C 123.134,36.5065 124.801,36.3398 126.5,36.5 Z"/></g>
<g><path style="opacity:0.992" fill="#7846d4" d="M 146.5,37.5 C 169.626,47.1594 179.459,64.4927 176,89.5C 173.235,99.5684 168.069,108.068 160.5,115C 172.236,139.139 184.236,163.139 196.5,187C 192.039,189.064 187.706,191.398 183.5,194C 182.365,194.749 181.365,194.583 180.5,193.5C 168.884,170.601 157.55,147.601 146.5,124.5C 146.5,95.5 146.5,66.5 146.5,37.5 Z"/></g>
<g><path style="opacity:0.997" fill="#674ccf" d="M 225.5,196.5 C 226.83,249.402 226.83,302.402 225.5,355.5C 219.364,354.806 213.364,353.473 207.5,351.5C 207.172,300.762 207.505,250.095 208.5,199.5C 213.844,197.367 219.511,196.367 225.5,196.5 Z"/></g>
<g><path style="opacity:0.997" fill="#614ecd" d="M 225.5,196.5 C 226.964,195.84 228.631,195.507 230.5,195.5C 237.077,195.854 243.41,196.854 249.5,198.5C 249.168,250.003 249.501,301.336 250.5,352.5C 242.45,354.714 234.117,355.714 225.5,355.5C 226.83,302.402 226.83,249.402 225.5,196.5 Z"/></g>
<g><path style="opacity:0.996" fill="#5a50cb" d="M 249.5,198.5 C 255.845,199.504 261.845,201.504 267.5,204.5C 266.505,251.761 266.172,299.095 266.5,346.5C 261.618,349.464 256.285,351.464 250.5,352.5C 249.501,301.336 249.168,250.003 249.5,198.5 Z"/></g>
<g><path style="opacity:0.991" fill="#1c65b9" d="M 434.5,200.5 C 439.179,200.334 443.845,200.501 448.5,201C 451.104,201.39 453.438,202.224 455.5,203.5C 454.502,227.661 454.169,251.994 454.5,276.5C 447.785,279.422 440.785,280.088 433.5,278.5C 434.49,252.574 434.824,226.574 434.5,200.5 Z"/></g>
<g><path style="opacity:0.996" fill="#6d49d1" d="M 208.5,199.5 C 207.505,250.095 207.172,300.762 207.5,351.5C 200.471,349.818 194.138,346.818 188.5,342.5C 188.5,297.833 188.5,253.167 188.5,208.5C 194.366,203.903 201.033,200.903 208.5,199.5 Z"/></g>
<g><path style="opacity:0.985" fill="#1568b7" d="M 455.5,203.5 C 474.356,212.539 482.189,227.539 479,248.5C 475.959,262.371 467.792,271.705 454.5,276.5C 454.169,251.994 454.502,227.661 455.5,203.5 Z"/></g>
<g><path style="opacity:0.994" fill="#5452c9" d="M 267.5,204.5 C 275.661,208.33 282.661,213.664 288.5,220.5C 287.502,257.33 287.168,294.33 287.5,331.5C 281.741,338.215 274.741,343.215 266.5,346.5C 266.172,299.095 266.505,251.761 267.5,204.5 Z"/></g>
<g><path style="opacity:0.997" fill="#2363bb" d="M 434.5,200.5 C 434.824,226.574 434.49,252.574 433.5,278.5C 427.614,277.873 422.281,275.873 417.5,272.5C 417.5,250.833 417.5,229.167 417.5,207.5C 422.538,203.82 428.204,201.487 434.5,200.5 Z"/></g>
<g><path style="opacity:0.995" fill="#7348d2" d="M 188.5,208.5 C 188.5,253.167 188.5,297.833 188.5,342.5C 180.62,338.624 174.287,332.957 169.5,325.5C 169.5,292.167 169.5,258.833 169.5,225.5C 174.267,218.066 180.6,212.399 188.5,208.5 Z"/></g>
<g><path style="opacity:0.973" fill="#2961bd" d="M 417.5,207.5 C 417.5,229.167 417.5,250.833 417.5,272.5C 411.013,267.845 406.18,261.845 403,254.5C 396.219,255.992 389.385,257.325 382.5,258.5C 382.5,252.833 382.5,247.167 382.5,241.5C 388.382,239.991 394.382,238.991 400.5,238.5C 401.255,225.312 406.922,214.979 417.5,207.5 Z"/></g>
<g><path style="opacity:0.991" fill="#4e54c8" d="M 288.5,220.5 C 310.19,244.587 316.023,272.254 306,303.5C 301.571,314.074 295.405,323.407 287.5,331.5C 287.168,294.33 287.502,257.33 288.5,220.5 Z"/></g>
<g><path style="opacity:0.968" fill="#7945d4" d="M 169.5,225.5 C 169.5,258.833 169.5,292.167 169.5,325.5C 153.532,305.96 148.032,283.627 153,258.5C 155.385,245.784 160.885,234.784 169.5,225.5 Z"/></g>
<g><path style="opacity:0.963" fill="#3b5bc2" d="M 382.5,241.5 C 382.5,247.167 382.5,252.833 382.5,258.5C 363.549,261.825 344.549,264.825 325.5,267.5C 325.038,262.392 324.038,257.392 322.5,252.5C 342.219,247.768 362.219,244.101 382.5,241.5 Z"/></g>
<g><path style="opacity:0.99" fill="#4956c6" d="M 328.5,361.5 C 327.508,368.648 327.175,375.981 327.5,383.5C 315.368,371.869 303.368,360.035 291.5,348C 296.008,344.658 300.008,340.825 303.5,336.5C 312.188,344.521 320.521,352.854 328.5,361.5 Z"/></g>
<g><path style="opacity:0.957" fill="#7e44d6" d="M 129.5,388.5 C 128.508,381.352 128.175,374.019 128.5,366.5C 138.146,356.188 148.146,346.188 158.5,336.5C 161.992,340.825 165.992,344.658 170.5,348C 156.965,361.702 143.299,375.202 129.5,388.5 Z"/></g>
<g><path style="opacity:0.971" fill="#4159c3" d="M 328.5,361.5 C 334.5,366.833 340.167,372.5 345.5,378.5C 345.5,403.167 345.5,427.833 345.5,452.5C 327.761,435.254 324.761,415.587 336.5,393.5C 333.478,390.147 330.478,386.813 327.5,383.5C 327.175,375.981 327.508,368.648 328.5,361.5 Z"/></g>
<g><path style="opacity:0.992" fill="#345dc0" d="M 383.5,375.5 C 382.833,389.496 382.5,403.663 382.5,418C 382.501,432.516 383.167,446.683 384.5,460.5C 377.723,462.738 370.723,463.071 363.5,461.5C 363.5,432.833 363.5,404.167 363.5,375.5C 366.695,374.764 370.029,374.097 373.5,373.5C 376.971,374.097 380.305,374.764 383.5,375.5 Z"/></g>
<g><path style="opacity:0.991" fill="#3b5bc2" d="M 363.5,375.5 C 363.5,404.167 363.5,432.833 363.5,461.5C 356.942,459.554 350.942,456.554 345.5,452.5C 345.5,427.833 345.5,403.167 345.5,378.5C 346.794,379.29 347.961,380.29 349,381.5C 353.311,378.23 358.144,376.23 363.5,375.5 Z"/></g>
<g><path style="opacity:0.974" fill="#2b60be" d="M 383.5,375.5 C 405.144,381.496 416.477,395.829 417.5,418.5C 417.357,433.955 411.023,446.122 398.5,455C 394.137,457.684 389.47,459.518 384.5,460.5C 383.167,446.683 382.501,432.516 382.5,418C 382.5,403.663 382.833,389.496 383.5,375.5 Z"/></g>
<g><path style="opacity:0.987" fill="#8a40d9" d="M 128.5,366.5 C 128.175,374.019 128.508,381.352 129.5,388.5C 121.188,397.146 112.855,405.813 104.5,414.5C 112.767,429.814 112.267,444.814 103,459.5C 99.5903,463.416 95.757,466.749 91.5,469.5C 90.1738,447.069 90.1738,424.736 91.5,402.5C 103.833,390.5 116.167,378.5 128.5,366.5 Z"/></g>
<g><path style="opacity:0.992" fill="#913ddb" d="M 91.5,402.5 C 90.1738,424.736 90.1738,447.069 91.5,469.5C 81.9448,475.27 71.6115,476.936 60.5,474.5C 60.8236,448.759 60.4902,423.092 59.5,397.5C 65.7967,396.461 72.1301,396.294 78.5,397C 83.3728,397.784 87.7061,399.617 91.5,402.5 Z"/></g>
<g><path style="opacity:0.984" fill="#983bdd" d="M 59.5,397.5 C 60.4902,423.092 60.8236,448.759 60.5,474.5C 37.9503,466.419 28.4503,450.419 32,426.5C 36.2267,412.108 45.3934,402.441 59.5,397.5 Z"/></g>
</svg>
