<?xml version="1.0" encoding="UTF-8"?>
<!DOCTYPE svg PUBLIC "-//W3C//DTD SVG 1.1//EN" "http://www.w3.org/Graphics/SVG/1.1/DTD/svg11.dtd">
<svg xmlns="http://www.w3.org/2000/svg" version="1.1" width="512px" height="512px" style="shape-rendering:geometricPrecision; text-rendering:geometricPrecision; image-rendering:optimizeQuality; fill-rule:evenodd; clip-rule:evenodd" xmlns:xlink="http://www.w3.org/1999/xlink">
<g><path style="opacity:0.992" fill="#fa1466" d="M 126.5,-0.5 C 129.167,-0.5 131.833,-0.5 134.5,-0.5C 141.69,6.18216 149.356,12.3488 157.5,18C 170.285,23.4805 182.951,29.1471 195.5,35C 201.86,40.0199 206.693,46.1866 210,53.5C 213.953,67.8562 210.119,79.6896 198.5,89C 187.699,94.4654 180.532,102.965 177,114.5C 174.772,130.211 180.605,141.711 194.5,149C 210.328,147.507 219.328,138.84 221.5,123C 216.797,104.022 223.131,98.6886 240.5,107C 252.826,114.325 261.992,124.492 268,137.5C 271.702,148.893 270.702,159.893 265,170.5C 263.183,179.7 266.683,185.867 275.5,189C 295.373,194.48 305.706,186.814 306.5,166C 306.187,161.811 305.687,157.644 305,153.5C 301.469,143.239 298.135,132.906 295,122.5C 291.922,109.146 296.755,100.313 309.5,96C 321.493,94.9734 333.493,93.9734 345.5,93C 348.996,92.3442 351.996,90.8442 354.5,88.5C 353.783,94.8202 351.949,100.82 349,106.5C 342.073,118.024 334.406,129.024 326,139.5C 318.117,154.36 319.117,168.694 329,182.5C 339.333,195.5 349.667,208.5 360,221.5C 375.77,242.146 383.104,265.48 382,291.5C 389.51,297.63 395.844,296.63 401,288.5C 402.577,283.898 404.411,279.565 406.5,275.5C 405.573,281.905 408.24,285.905 414.5,287.5C 413.286,297.974 409.786,307.64 404,316.5C 390.807,328.733 384.64,343.899 385.5,362C 386.318,373.162 386.485,384.329 386,395.5C 382.491,409.694 373.324,416.86 358.5,417C 352.833,417.333 347.167,417.667 341.5,418C 338.979,421.482 339.145,424.982 342,428.5C 348.333,434.167 354.667,439.833 361,445.5C 364.301,450.343 363.967,455.01 360,459.5C 347.443,478.722 330.609,492.889 309.5,502C 301.831,504.902 294.831,507.736 288.5,510.5C 288.5,510.833 288.5,511.167 288.5,511.5C 270.833,511.5 253.167,511.5 235.5,511.5C 196.618,508.353 158.951,499.52 122.5,485C 103.328,477.174 87.1612,465.341 74,449.5C 65.3753,435.435 65.3753,421.435 74,407.5C 78.6667,400.833 83.3333,394.167 88,387.5C 93.1974,377.211 92.1974,367.544 85,358.5C 79.3333,351.5 73,345.167 66,339.5C 49.2758,319.109 46.6091,297.109 58,273.5C 65.1596,265.413 73.4929,258.747 83,253.5C 85,249.833 85,246.167 83,242.5C 80.8333,240.333 78.6667,238.167 76.5,236C 68.5651,231.45 61.0651,226.284 54,220.5C 49.7148,214.455 49.3815,208.122 53,201.5C 56.878,192.245 62.378,184.078 69.5,177C 72.3597,174.483 75.5264,173.649 79,174.5C 78.1022,190.146 82.9355,203.646 93.5,215C 106.804,221.848 114.471,217.848 116.5,203C 115.866,196.298 114.366,189.798 112,183.5C 106.413,173.32 100.079,163.654 93,154.5C 87.1074,145.762 87.1074,137.095 93,128.5C 106.41,118.212 119.91,108.045 133.5,98C 146.328,87.9094 149.828,75.4094 144,60.5C 137.918,49.9997 131.584,39.6663 125,29.5C 120.45,22.6558 119.116,15.3225 121,7.5C 122.129,4.20641 123.962,1.53975 126.5,-0.5 Z"/></g>
<g><path style="opacity:0.968" fill="#fb1365" d="M 314.5,3.5 C 325.106,3.06248 331.606,8.06248 334,18.5C 336.684,31.7324 335.017,44.399 329,56.5C 321.008,63.9796 312.508,64.4796 303.5,58C 297.394,51.4981 295.894,43.9981 299,35.5C 301.826,29.1777 305.159,23.1777 309,17.5C 310.126,13.5352 311.126,9.53519 312,5.5C 312.995,4.93406 313.828,4.26739 314.5,3.5 Z"/></g>
<g><path style="opacity:0.97" fill="#fc5995" d="M 75.5,31.5 C 86.7649,29.5967 90.7649,34.0967 87.5,45C 89.4721,52.5552 90.8054,60.2219 91.5,68C 91.0096,80.4904 84.5096,86.9904 72,87.5C 60.7415,86.3798 55.5749,80.0465 56.5,68.5C 56.4332,55.5196 60.7665,44.3529 69.5,35C 71.4319,33.5415 73.4319,32.3748 75.5,31.5 Z"/></g>
<g><path style="opacity:1" fill="#e01058" d="M 406.5,275.5 C 404.411,279.565 402.577,283.898 401,288.5C 395.844,296.63 389.51,297.63 382,291.5C 383.104,265.48 375.77,242.146 360,221.5C 349.667,208.5 339.333,195.5 329,182.5C 319.117,168.694 318.117,154.36 326,139.5C 334.406,129.024 342.073,118.024 349,106.5C 351.949,100.82 353.783,94.8202 354.5,88.5C 357.572,82.9957 359.072,76.9957 359,70.5C 361.448,64.5336 365.615,63.0336 371.5,66C 380.881,74.4852 384.047,84.9852 381,97.5C 380,100.5 379,103.5 378,106.5C 370.45,119.38 362.116,131.713 353,143.5C 348.737,152.336 348.403,161.336 352,170.5C 359.869,184.234 369.202,196.901 380,208.5C 389.73,220.583 397.396,233.916 403,248.5C 405.523,257.324 406.689,266.324 406.5,275.5 Z"/></g>
<g><path style="opacity:0.979" fill="#e00f57" d="M 439.5,170.5 C 450.106,170.062 456.606,175.062 459,185.5C 461.138,197.54 459.805,209.206 455,220.5C 452.267,225.703 447.933,228.369 442,228.5C 424.685,225.134 419.352,215.134 426,198.5C 429,193.167 432,187.833 435,182.5C 435.557,178.027 437.057,174.027 439.5,170.5 Z"/></g>
<g><path style="opacity:1" fill="#fb5a95" d="M 208.5,219.5 C 208.389,220.117 208.056,220.617 207.5,221C 214.369,232.604 212.036,241.938 200.5,249C 193.114,251.946 186.614,250.779 181,245.5C 178.854,241.525 177.02,237.525 175.5,233.5C 174.501,225.189 174.335,216.856 175,208.5C 177.36,198.451 183.527,193.285 193.5,193C 194.931,193.465 196.097,194.299 197,195.5C 197.948,205.058 201.781,213.058 208.5,219.5 Z"/></g>
<g><path style="opacity:1" fill="#f2eef1" d="M 230.5,216.5 C 273.659,216.164 304.493,235.497 323,274.5C 337.635,308.871 340.969,344.204 333,380.5C 326.29,394.867 315.124,403.701 299.5,407C 290.964,411.366 285.63,418.199 283.5,427.5C 277.931,422.641 272.097,422.307 266,426.5C 263.223,434.608 261.223,442.942 260,451.5C 259.167,453.667 257.667,455.167 255.5,456C 248.06,456.928 240.726,456.594 233.5,455C 232.299,454.097 231.465,452.931 231,451.5C 229.777,442.942 227.777,434.608 225,426.5C 218.375,421.995 212.375,422.662 207,428.5C 205.879,434.487 204.379,440.32 202.5,446C 197.092,448.444 191.426,449.11 185.5,448C 183.43,447.052 181.93,445.552 181,443.5C 179.219,434.36 176.219,425.693 172,417.5C 166.3,411.924 159.467,408.424 151.5,407C 136.08,399.233 127.247,386.733 125,369.5C 122.37,338.45 126.703,308.45 138,279.5C 146.352,260.661 158.852,245.328 175.5,233.5C 177.02,237.525 178.854,241.525 181,245.5C 186.614,250.779 193.114,251.946 200.5,249C 212.036,241.938 214.369,232.604 207.5,221C 208.056,220.617 208.389,220.117 208.5,219.5C 215.772,218.066 223.105,217.066 230.5,216.5 Z"/></g>
<g><path style="opacity:1" fill="#e1dce0" d="M 230.5,216.5 C 311.193,211.144 356.36,248.811 366,329.5C 367.798,344.181 367.798,358.847 366,373.5C 362.057,395.11 349.223,407.61 327.5,411C 324.217,412.561 321.383,414.727 319,417.5C 315.206,426.216 312.206,435.216 310,444.5C 308.786,446.049 307.286,447.215 305.5,448C 300.051,448.896 294.718,448.563 289.5,447C 288.299,446.097 287.465,444.931 287,443.5C 285.512,438.216 284.345,432.883 283.5,427.5C 285.63,418.199 290.964,411.366 299.5,407C 315.124,403.701 326.29,394.867 333,380.5C 340.969,344.204 337.635,308.871 323,274.5C 304.493,235.497 273.659,216.164 230.5,216.5 Z"/></g>
<g><path style="opacity:1" fill="#e01058" d="M 288.5,510.5 C 294.831,507.736 301.831,504.902 309.5,502C 330.609,492.889 347.443,478.722 360,459.5C 363.967,455.01 364.301,450.343 361,445.5C 354.667,439.833 348.333,434.167 342,428.5C 339.145,424.982 338.979,421.482 341.5,418C 347.167,417.667 352.833,417.333 358.5,417C 373.324,416.86 382.491,409.694 386,395.5C 386.485,384.329 386.318,373.162 385.5,362C 384.64,343.899 390.807,328.733 404,316.5C 409.786,307.64 413.286,297.974 414.5,287.5C 418.138,287.262 420.971,285.596 423,282.5C 425.789,277.466 427.789,272.132 429,266.5C 434.025,260.645 439.692,259.979 446,264.5C 450.102,281.536 448.769,298.202 442,314.5C 437.05,321.784 431.717,328.784 426,335.5C 420.439,345.972 417.939,357.138 418.5,369C 419.25,379.831 419.417,390.664 419,401.5C 417.571,410.588 412.737,417.088 404.5,421C 394.599,422.95 384.599,424.283 374.5,425C 372.052,428.142 372.219,431.308 375,434.5C 382.022,440.524 388.689,446.857 395,453.5C 395.965,457.782 395.298,461.782 393,465.5C 382.745,480.079 369.245,490.579 352.5,497C 331.937,505.146 310.603,509.646 288.5,510.5 Z"/></g>
<g><path style="opacity:1" fill="#fb1967" d="M 188.5,294.5 C 214.277,294.436 225.777,307.103 223,332.5C 216.191,351.496 202.691,359.663 182.5,357C 165.382,350.273 158.549,337.773 162,319.5C 166.522,306.475 175.356,298.141 188.5,294.5 Z"/></g>
<g><path style="opacity:1" fill="#fb1967" d="M 290.5,294.5 C 318.171,295.001 331.004,309.001 329,336.5C 320.012,356.835 305.178,362.668 284.5,354C 267.506,342.522 263.006,327.355 271,308.5C 276.012,301.639 282.512,296.972 290.5,294.5 Z"/></g>
<g><path style="opacity:1" fill="#fb226a" d="M 241.5,355.5 C 245.463,355.089 249.13,355.922 252.5,358C 259.091,363.024 262.591,369.524 263,377.5C 261.833,381.333 259.333,383.833 255.5,385C 248.833,385.667 242.167,385.667 235.5,385C 229.482,382.465 226.982,377.965 228,371.5C 231.267,365.071 235.767,359.738 241.5,355.5 Z"/></g>
</svg>
