<?xml version="1.0" encoding="UTF-8"?>
<!DOCTYPE svg PUBLIC "-//W3C//DTD SVG 1.1//EN" "http://www.w3.org/Graphics/SVG/1.1/DTD/svg11.dtd">
<svg xmlns="http://www.w3.org/2000/svg" version="1.1" width="512px" height="512px" style="shape-rendering:geometricPrecision; text-rendering:geometricPrecision; image-rendering:optimizeQuality; fill-rule:evenodd; clip-rule:evenodd" xmlns:xlink="http://www.w3.org/1999/xlink">
<g><path style="opacity:1" fill="#2985ed" d="M 18.5,-0.5 C 176.5,-0.5 334.5,-0.5 492.5,-0.5C 501.833,2.83333 508.167,9.16667 511.5,18.5C 511.5,123.833 511.5,229.167 511.5,334.5C 340.833,334.5 170.167,334.5 -0.5,334.5C -0.5,229.167 -0.5,123.833 -0.5,18.5C 2.83333,9.16667 9.16667,2.83333 18.5,-0.5 Z"/></g>
<g><path style="opacity:1" fill="#edf1f6" d="M 32.5,34.5 C 51.8362,34.3334 71.1695,34.5 90.5,35C 96.3682,38.0402 97.8682,42.5402 95,48.5C 93.786,50.0488 92.286,51.2155 90.5,52C 70.8333,52.6667 51.1667,52.6667 31.5,52C 26.8451,49.1034 25.3451,44.9367 27,39.5C 28.7297,37.5981 30.563,35.9314 32.5,34.5 Z"/></g>
<g><path style="opacity:1" fill="#f9cb58" d="M 120.5,34.5 C 133.837,34.3334 147.171,34.5001 160.5,35C 168.321,39.104 169.321,44.4373 163.5,51C 162.5,51.3333 161.5,51.6667 160.5,52C 146.833,52.6667 133.167,52.6667 119.5,52C 112.607,45.6718 112.94,39.8384 120.5,34.5 Z"/></g>
<g><path style="opacity:1" fill="#a8db66" d="M 191.5,34.5 C 204.837,34.3334 218.171,34.5001 231.5,35C 237.089,37.4507 238.922,41.6174 237,47.5C 235.891,49.8147 234.057,51.3147 231.5,52C 217.833,52.6667 204.167,52.6667 190.5,52C 182.38,45.6577 182.713,39.8243 191.5,34.5 Z"/></g>
<g><path style="opacity:1" fill="#ed88ca" d="M 262.5,34.5 C 304.835,34.3333 347.168,34.5 389.5,35C 396.16,37.4902 397.993,41.9902 395,48.5C 393.786,50.0488 392.286,51.2155 390.5,52C 347.5,52.6667 304.5,52.6667 261.5,52C 256.002,48.8398 254.502,44.3398 257,38.5C 258.812,37.0229 260.645,35.6896 262.5,34.5 Z"/></g>
<g><path style="opacity:1" fill="#f1f3f6" d="M 30.5,70.5 C 50.8361,70.3334 71.1694,70.5 91.5,71C 97.1174,74.8649 97.9507,79.6982 94,85.5C 93.2496,86.1258 92.4162,86.6258 91.5,87C 71.5,87.6667 51.5,87.6667 31.5,87C 26.8451,84.1034 25.3451,79.9367 27,74.5C 28.3756,73.2949 29.5423,71.9616 30.5,70.5 Z"/></g>
<g><path style="opacity:1" fill="#fccc55" d="M 119.5,70.5 C 127.84,70.3336 136.173,70.5003 144.5,71C 148.861,73.2258 150.361,76.7258 149,81.5C 148.226,83.9393 146.726,85.7727 144.5,87C 136.167,87.6667 127.833,87.6667 119.5,87C 114.391,83.6338 113.224,79.1338 116,73.5C 117.145,72.3636 118.312,71.3636 119.5,70.5 Z"/></g>
<g><path style="opacity:1" fill="#a9dc63" d="M 172.5,70.5 C 180.84,70.3336 189.173,70.5003 197.5,71C 201.861,73.2258 203.361,76.7258 202,81.5C 201.315,84.0573 199.815,85.8906 197.5,87C 189.167,87.6667 180.833,87.6667 172.5,87C 167.391,83.6338 166.224,79.1338 169,73.5C 170.145,72.3636 171.312,71.3636 172.5,70.5 Z"/></g>
<g><path style="opacity:1" fill="#f188ca" d="M 225.5,70.5 C 245.503,70.3334 265.503,70.5 285.5,71C 290.069,73.5414 291.569,77.3747 290,82.5C 289.167,84.6667 287.667,86.1667 285.5,87C 265.5,87.6667 245.5,87.6667 225.5,87C 220.391,83.6338 219.224,79.1338 222,73.5C 223.145,72.3636 224.312,71.3636 225.5,70.5 Z"/></g>
<g><path style="opacity:1" fill="#edf1f6" d="M 31.5,105.5 C 51.1695,105.333 70.8362,105.5 90.5,106C 97.2372,109.819 98.2372,114.819 93.5,121C 92.1667,121.667 90.8333,122.333 89.5,123C 70.5,123.667 51.5,123.667 32.5,123C 26.388,119.707 24.888,114.873 28,108.5C 29.1451,107.364 30.3117,106.364 31.5,105.5 Z"/></g>
<g><path style="opacity:1" fill="#facb58" d="M 119.5,105.5 C 127.507,105.334 135.507,105.5 143.5,106C 149.574,108.899 151.074,113.399 148,119.5C 146.421,121.041 144.587,122.208 142.5,123C 135.167,123.667 127.833,123.667 120.5,123C 115.268,120.367 113.435,116.201 115,110.5C 116.366,108.638 117.866,106.972 119.5,105.5 Z"/></g>
<g><path style="opacity:1" fill="#a8db66" d="M 172.5,105.5 C 180.507,105.334 188.507,105.5 196.5,106C 202.574,108.899 204.074,113.399 201,119.5C 199.421,121.041 197.587,122.208 195.5,123C 188.167,123.667 180.833,123.667 173.5,123C 167.533,119.608 166.033,114.774 169,108.5C 170.145,107.364 171.312,106.364 172.5,105.5 Z"/></g>
<g><path style="opacity:1" fill="#f088ca" d="M 226.5,105.5 C 234.174,105.334 241.841,105.5 249.5,106C 257.088,110.924 257.421,116.257 250.5,122C 242.167,122.667 233.833,122.667 225.5,122C 220.931,119.459 219.431,115.625 221,110.5C 222.406,108.256 224.239,106.59 226.5,105.5 Z"/></g>
<g><path style="opacity:1" fill="#edf1f6" d="M 278.5,105.5 C 286.507,105.334 294.507,105.5 302.5,106C 308.574,108.899 310.074,113.399 307,119.5C 305.421,121.041 303.587,122.208 301.5,123C 294.167,123.667 286.833,123.667 279.5,123C 273.533,119.608 272.033,114.774 275,108.5C 276.145,107.364 277.312,106.364 278.5,105.5 Z"/></g>
<g><path style="opacity:1" fill="#facb58" d="M 331.5,105.5 C 339.507,105.334 347.507,105.5 355.5,106C 361.876,109.542 363.043,114.376 359,120.5C 357.581,121.46 356.081,122.293 354.5,123C 347.167,123.667 339.833,123.667 332.5,123C 326.533,119.608 325.033,114.774 328,108.5C 329.145,107.364 330.312,106.364 331.5,105.5 Z"/></g>
<g><path style="opacity:1" fill="#edf1f6" d="M 32.5,140.5 C 51.8362,140.333 71.1695,140.5 90.5,141C 96.3682,144.04 97.8682,148.54 95,154.5C 93.786,156.049 92.286,157.215 90.5,158C 70.8333,158.667 51.1667,158.667 31.5,158C 26.8451,155.103 25.3451,150.937 27,145.5C 28.4055,143.256 30.2389,141.59 32.5,140.5 Z"/></g>
<g><path style="opacity:1" fill="#facb58" d="M 120.5,140.5 C 128.174,140.334 135.841,140.5 143.5,141C 148.426,143.353 150.26,147.186 149,152.5C 147.833,155 146,156.833 143.5,158C 135.833,158.667 128.167,158.667 120.5,158C 112.53,152.087 112.53,146.254 120.5,140.5 Z"/></g>
<g><path style="opacity:1" fill="#a8db65" d="M 173.5,140.5 C 192.836,140.333 212.17,140.5 231.5,141C 237.089,143.451 238.922,147.617 237,153.5C 235.773,155.726 233.939,157.226 231.5,158C 211.833,158.667 192.167,158.667 172.5,158C 165.607,151.672 165.94,145.838 173.5,140.5 Z"/></g>
<g><path style="opacity:1" fill="#f1f3f6" d="M 30.5,176.5 C 50.8361,176.333 71.1694,176.5 91.5,177C 96.8266,180.436 97.8266,184.936 94.5,190.5C 93.5,191.333 92.5,192.167 91.5,193C 71.5,193.667 51.5,193.667 31.5,193C 26.8451,190.103 25.3451,185.937 27,180.5C 28.3756,179.295 29.5423,177.962 30.5,176.5 Z"/></g>
<g><path style="opacity:1" fill="#fdcc55" d="M 119.5,176.5 C 133.837,176.333 148.171,176.5 162.5,177C 169.394,182.841 169.061,188.175 161.5,193C 147.5,193.667 133.5,193.667 119.5,193C 114.391,189.634 113.224,185.134 116,179.5C 117.145,178.364 118.312,177.364 119.5,176.5 Z"/></g>
<g><path style="opacity:1" fill="#aadd63" d="M 189.5,176.5 C 203.837,176.333 218.171,176.5 232.5,177C 237.224,179.435 238.724,183.269 237,188.5C 236.167,190.667 234.667,192.167 232.5,193C 218.167,193.667 203.833,193.667 189.5,193C 182.899,187.504 182.899,182.004 189.5,176.5 Z"/></g>
<g><path style="opacity:1" fill="#f188ca" d="M 260.5,176.5 C 304.168,176.333 347.835,176.5 391.5,177C 396.827,180.436 397.827,184.936 394.5,190.5C 393.335,191.584 392.002,192.417 390.5,193C 347.5,193.667 304.5,193.667 261.5,193C 253.948,187.876 253.615,182.376 260.5,176.5 Z"/></g>
<g><path style="opacity:1" fill="#eff2f6" d="M 419.5,176.5 C 427.84,176.334 436.173,176.5 444.5,177C 449.069,179.541 450.569,183.375 449,188.5C 448.167,190.667 446.667,192.167 444.5,193C 436.167,193.667 427.833,193.667 419.5,193C 412.856,187.375 412.856,181.875 419.5,176.5 Z"/></g>
<g><path style="opacity:1" fill="#edf1f6" d="M 31.5,211.5 C 51.1695,211.333 70.8362,211.5 90.5,212C 96.5712,214.852 98.0712,219.352 95,225.5C 93.4207,227.041 91.5873,228.208 89.5,229C 70.5,229.667 51.5,229.667 32.5,229C 26.388,225.707 24.888,220.873 28,214.5C 29.1451,213.364 30.3117,212.364 31.5,211.5 Z"/></g>
<g><path style="opacity:1" fill="#f9ca59" d="M 119.5,211.5 C 127.507,211.334 135.507,211.5 143.5,212C 149.574,214.899 151.074,219.399 148,225.5C 146.421,227.041 144.587,228.208 142.5,229C 135.167,229.667 127.833,229.667 120.5,229C 114.533,225.608 113.033,220.774 116,214.5C 117.145,213.364 118.312,212.364 119.5,211.5 Z"/></g>
<g><path style="opacity:1" fill="#a8db66" d="M 172.5,211.5 C 180.507,211.334 188.507,211.5 196.5,212C 202.574,214.899 204.074,219.399 201,225.5C 199.421,227.041 197.587,228.208 195.5,229C 188.167,229.667 180.833,229.667 173.5,229C 167.533,225.608 166.033,220.774 169,214.5C 170.145,213.364 171.312,212.364 172.5,211.5 Z"/></g>
<g><path style="opacity:1" fill="#f188ca" d="M 225.5,211.5 C 268.835,211.333 312.168,211.5 355.5,212C 363.088,216.924 363.421,222.257 356.5,228C 312.833,228.667 269.167,228.667 225.5,228C 220.931,225.459 219.431,221.625 221,216.5C 222.366,214.638 223.866,212.972 225.5,211.5 Z"/></g>
<g><path style="opacity:1" fill="#f1f3f6" d="M 30.5,273.5 C 50.8361,273.333 71.1694,273.5 91.5,274C 97.1174,277.865 97.9507,282.698 94,288.5C 93.2496,289.126 92.4162,289.626 91.5,290C 71.1667,290.667 50.8333,290.667 30.5,290C 25.1932,284.428 25.1932,278.928 30.5,273.5 Z"/></g>
<g><path style="opacity:1" fill="#fccc56" d="M 119.5,273.5 C 127.84,273.334 136.173,273.5 144.5,274C 148.861,276.226 150.361,279.726 149,284.5C 148.315,287.057 146.815,288.891 144.5,290C 136.167,290.667 127.833,290.667 119.5,290C 114.391,286.634 113.224,282.134 116,276.5C 117.145,275.364 118.312,274.364 119.5,273.5 Z"/></g>
<g><path style="opacity:1" fill="#aadd62" d="M 172.5,273.5 C 192.503,273.333 212.503,273.5 232.5,274C 237.069,276.541 238.569,280.375 237,285.5C 236.167,287.667 234.667,289.167 232.5,290C 212.5,290.667 192.5,290.667 172.5,290C 167.391,286.634 166.224,282.134 169,276.5C 170.145,275.364 171.312,274.364 172.5,273.5 Z"/></g>
<g><path style="opacity:0.999" fill="#d6dce5" d="M -0.5,334.5 C 170.167,334.5 340.833,334.5 511.5,334.5C 511.5,351.833 511.5,369.167 511.5,386.5C 507.388,398.242 499.054,404.742 486.5,406C 442.168,406.5 397.835,406.667 353.5,406.5C 288.167,405.167 222.833,405.167 157.5,406.5C 113.165,406.667 68.8321,406.5 24.5,406C 11.9457,404.742 3.61236,398.242 -0.5,386.5C -0.5,369.167 -0.5,351.833 -0.5,334.5 Z"/></g>
<g><path style="opacity:1" fill="#8c94a3" d="M 234.5,361.5 C 248.171,361.333 261.837,361.5 275.5,362C 278.232,362.398 280.065,363.898 281,366.5C 282.922,372.383 281.089,376.549 275.5,379C 262.167,379.667 248.833,379.667 235.5,379C 229.388,375.707 227.888,370.873 231,364.5C 232.145,363.364 233.312,362.364 234.5,361.5 Z"/></g>
<g><path style="opacity:1" fill="#bbc1ce" d="M 353.5,406.5 C 353.5,417.833 353.5,429.167 353.5,440.5C 288.167,440.5 222.833,440.5 157.5,440.5C 157.5,429.167 157.5,417.833 157.5,406.5C 222.833,405.167 288.167,405.167 353.5,406.5 Z"/></g>
<g><path style="opacity:0.995" fill="#d7dce4" d="M 157.5,440.5 C 222.833,440.5 288.167,440.5 353.5,440.5C 374.034,452.263 394.367,464.263 414.5,476.5C 308.5,476.5 202.5,476.5 96.5,476.5C 116.633,464.263 136.966,452.263 157.5,440.5 Z"/></g>
<g><path style="opacity:0.999" fill="#bbc1cd" d="M 96.5,476.5 C 202.5,476.5 308.5,476.5 414.5,476.5C 414.666,486.506 414.5,496.506 414,506.5C 412.975,508.687 411.475,510.354 409.5,511.5C 306.833,511.5 204.167,511.5 101.5,511.5C 99.525,510.354 98.025,508.687 97,506.5C 96.5002,496.506 96.3335,486.506 96.5,476.5 Z"/></g>
</svg>
