<?xml version="1.0" encoding="UTF-8"?>
<!DOCTYPE svg PUBLIC "-//W3C//DTD SVG 1.1//EN" "http://www.w3.org/Graphics/SVG/1.1/DTD/svg11.dtd">
<svg xmlns="http://www.w3.org/2000/svg" version="1.1" width="32px" height="32px" style="shape-rendering:geometricPrecision; text-rendering:geometricPrecision; image-rendering:optimizeQuality; fill-rule:evenodd; clip-rule:evenodd" xmlns:xlink="http://www.w3.org/1999/xlink">
<g><path style="opacity:0.755" fill="#641fb8" d="M 20.5,3.5 C 10.7195,2.04501 4.71951,6.04501 2.5,15.5C 4.59687,25.7048 10.5969,29.5381 20.5,27C 26.5003,23.1559 28.8336,17.6559 27.5,10.5C 28.4959,10.4142 29.3292,10.7476 30,11.5C 30.823,26.0065 23.9896,32.1732 9.5,30C 0.114671,24.3573 -2.052,16.524 3,6.5C 7.4087,1.47486 12.9087,-0.358469 19.5,1C 20.2524,1.67076 20.5858,2.5041 20.5,3.5 Z"/></g>
<g><path style="opacity:0.863" fill="#f88916" d="M 27.5,10.5 C 25.3736,11.0482 23.3736,11.7148 21.5,12.5C 20.8333,12.5 20.5,12.8333 20.5,13.5C 19.0384,14.4577 17.7051,15.6244 16.5,17C 15.0347,17.6013 14.0347,17.1013 13.5,15.5C 14.8569,13.8144 16.1902,12.1477 17.5,10.5C 18.1667,10.5 18.5,10.1667 18.5,9.5C 19.2852,7.62642 19.9518,5.62642 20.5,3.5C 21.8566,2.31461 23.3566,1.31461 25,0.5C 26.8333,2.33333 28.6667,4.16667 30.5,6C 29.6854,7.64341 28.6854,9.14341 27.5,10.5 Z M 23.5,4.5 C 27.6099,6.74583 27.2765,8.07916 22.5,8.5C 22.4326,7.04125 22.7659,5.70792 23.5,4.5 Z"/></g>
<g><path style="opacity:0.788" fill="#6520ba" d="M 18.5,9.5 C 17.8333,9.5 17.5,9.83333 17.5,10.5C 11.238,9.27224 8.73796,11.9389 10,18.5C 14.0734,22.6185 17.74,22.2852 21,17.5C 21.5791,16.0715 21.4124,14.7382 20.5,13.5C 21.1667,13.5 21.5,13.1667 21.5,12.5C 23.2926,12.8836 24.2926,14.0503 24.5,16C 22.1312,24.1836 17.1312,26.3503 9.5,22.5C 4.29363,14.7293 6.12697,9.39599 15,6.5C 16.9497,6.70743 18.1164,7.70743 18.5,9.5 Z"/></g>
</svg>
