<?xml version="1.0" encoding="UTF-8"?>
<!DOCTYPE svg PUBLIC "-//W3C//DTD SVG 1.1//EN" "http://www.w3.org/Graphics/SVG/1.1/DTD/svg11.dtd">
<svg xmlns="http://www.w3.org/2000/svg" version="1.1" width="512px" height="512px" style="shape-rendering:geometricPrecision; text-rendering:geometricPrecision; image-rendering:optimizeQuality; fill-rule:evenodd; clip-rule:evenodd" xmlns:xlink="http://www.w3.org/1999/xlink">
<g><path style="opacity:0.974" fill="#6621b9" d="M 69.5,32.5 C 182.834,32.3333 296.167,32.5 409.5,33C 438.345,37.5123 455.845,54.0123 462,82.5C 462.667,148.167 462.667,213.833 462,279.5C 456.952,289.183 449.452,291.683 439.5,287C 436.894,285.062 435.061,282.562 434,279.5C 433.5,240.835 433.333,202.168 433.5,163.5C 304.5,163.5 175.5,163.5 46.5,163.5C 46.3333,230.501 46.5,297.501 47,364.5C 50.588,377.754 59.088,385.921 72.5,389C 143.833,389.333 215.167,389.667 286.5,390C 295.41,393.653 298.576,400.153 296,409.5C 293.96,414.876 290.127,418.043 284.5,419C 213.5,419.667 142.5,419.667 71.5,419C 40.9029,414.403 22.7363,396.903 17,366.5C 16.3333,272.833 16.3333,179.167 17,85.5C 22.6797,55.9874 40.1797,38.3207 69.5,32.5 Z M 70.5,62.5 C 183.167,62.3333 295.834,62.5 408.5,63C 423.135,66.967 431.302,76.467 433,91.5C 433.5,105.829 433.667,120.163 433.5,134.5C 304.5,134.5 175.5,134.5 46.5,134.5C 46.3334,118.497 46.5001,102.497 47,86.5C 50.349,73.9853 58.1824,65.9853 70.5,62.5 Z"/></g>
<g><path style="opacity:0.946" fill="#6521ba" d="M 92.5,84.5 C 106.926,85.6792 111.426,93.0125 106,106.5C 98.374,113.382 91.0407,113.049 84,105.5C 79.739,95.6525 82.5723,88.6525 92.5,84.5 Z"/></g>
<g><path style="opacity:0.948" fill="#6520ba" d="M 138.5,84.5 C 152.153,85.8278 156.653,92.8278 152,105.5C 146.442,111.924 139.942,113.091 132.5,109C 126.923,103.146 126.09,96.6463 130,89.5C 132.398,86.8916 135.231,85.2249 138.5,84.5 Z"/></g>
<g><path style="opacity:0.949" fill="#6520ba" d="M 183.5,84.5 C 196.315,85.4718 201.148,92.1385 198,104.5C 192.56,111.808 185.726,113.308 177.5,109C 169.432,98.2691 171.432,90.1024 183.5,84.5 Z"/></g>
<g><path style="opacity:0.986" fill="#f98a16" d="M 325.5,281.5 C 331.282,282.065 336.949,283.231 342.5,285C 387.167,298.667 431.833,312.333 476.5,326C 491.831,333.64 497.331,345.807 493,362.5C 491.078,368.43 487.578,373.263 482.5,377C 460.394,385.368 438.227,393.535 416,401.5C 409.333,421.5 402.667,441.5 396,461.5C 384.794,479.01 369.961,482.844 351.5,473C 345.512,468.195 341.679,462.028 340,454.5C 325.365,406.958 311.198,359.291 297.5,311.5C 299.025,293.981 308.359,283.981 325.5,281.5 Z M 328.5,312.5 C 373.239,325.686 417.906,339.186 462.5,353C 443.167,359.667 423.833,366.333 404.5,373C 397.333,376.167 392.167,381.333 389,388.5C 382.333,407.833 375.667,427.167 369,446.5C 355.392,401.846 341.892,357.179 328.5,312.5 Z"/></g>
</svg>
