<?xml version="1.0" encoding="UTF-8"?>
<!DOCTYPE svg PUBLIC "-//W3C//DTD SVG 1.1//EN" "http://www.w3.org/Graphics/SVG/1.1/DTD/svg11.dtd">
<svg xmlns="http://www.w3.org/2000/svg" version="1.1" width="512px" height="512px" style="shape-rendering:geometricPrecision; text-rendering:geometricPrecision; image-rendering:optimizeQuality; fill-rule:evenodd; clip-rule:evenodd" xmlns:xlink="http://www.w3.org/1999/xlink">
<g><path style="opacity:0.97" fill="#333333" d="M 295.5,36.5 C 306.99,35.5261 317.99,37.3594 328.5,42C 333.405,45.9625 333.739,50.2958 329.5,55C 319.909,62.3795 310.409,69.8795 301,77.5C 301.351,83.1394 301.851,88.8061 302.5,94.5C 307.923,95.8081 313.089,97.8081 318,100.5C 327.833,92.6667 337.667,84.8333 347.5,77C 354.789,74.3172 358.956,76.8172 360,84.5C 362.52,115.973 349.02,137.14 319.5,148C 307.363,151.34 295.363,150.84 283.5,146.5C 282.062,146.719 280.729,147.219 279.5,148C 234.667,183.5 189.833,219 145,254.5C 147.287,282.432 136.12,302.932 111.5,316C 96.9524,321.542 82.2858,321.875 67.5,317C 60.9888,315.118 58.8221,310.951 61,304.5C 70.3983,295.932 80.2316,287.932 90.5,280.5C 90.8333,279.5 91.1667,278.5 91.5,277.5C 90.6451,272.516 89.9785,267.516 89.5,262.5C 84.0772,261.192 78.9105,259.192 74,256.5C 63.5141,265.829 52.3474,274.163 40.5,281.5C 35.1166,280.949 32.2833,277.949 32,272.5C 29.6949,241.158 43.1949,219.991 72.5,209C 77.778,207.987 83.1113,207.487 88.5,207.5C 96.3206,207.548 103.987,208.381 111.5,210C 156.667,174.167 201.833,138.333 247,102.5C 245.493,67.2122 261.66,45.2122 295.5,36.5 Z"/></g>
<g><path style="opacity:1" fill="#c9c9c9" d="M 295.5,51.5 C 299.846,51.3343 304.179,51.501 308.5,52C 301,58.1667 293.5,64.3333 286,70.5C 285.333,74.1667 285.333,77.8333 286,81.5C 287.259,88.4634 288.259,95.4634 289,102.5C 290.543,104.378 292.376,105.878 294.5,107C 302.68,110.17 310.847,113.337 319,116.5C 321.321,116.091 323.487,115.257 325.5,114C 332,108.833 338.5,103.667 345,98.5C 340.835,121.491 327.002,133.824 303.5,135.5C 296.281,134.356 289.114,133.023 282,131.5C 279.37,131.464 276.87,131.964 274.5,133C 226.712,170.453 179.212,208.286 132,246.5C 129.385,251.741 128.885,257.241 130.5,263C 127.699,291.471 112.032,305.471 83.5,305C 91.9168,299.254 99.7501,292.754 107,285.5C 106.699,275.058 105.366,264.724 103,254.5C 101.833,253.333 100.667,252.167 99.5,251C 90.495,247.497 81.495,243.997 72.5,240.5C 63.3196,245.837 54.8196,252.17 47,259.5C 49.7237,239.103 61.2237,226.603 81.5,222C 85.8333,221.333 90.1667,221.333 94.5,222C 99.5102,223.507 104.51,225.007 109.5,226.5C 113.62,226.072 117.287,224.572 120.5,222C 165.167,186.667 209.833,151.333 254.5,116C 258.194,113.313 260.694,109.813 262,105.5C 258.855,78.2261 270.022,60.2261 295.5,51.5 Z"/></g>
<g><path style="opacity:0.98" fill="#343332" d="M 294.5,234.5 C 311.95,233.306 328.95,235.473 345.5,241C 353.337,245.682 358.337,252.516 360.5,261.5C 431.035,291.171 466.702,344.505 467.5,421.5C 473.349,424.515 477.182,429.182 479,435.5C 479.667,443.167 479.667,450.833 479,458.5C 476.5,466.333 471.333,471.5 463.5,474C 358.833,474.667 254.167,474.667 149.5,474C 141.667,471.5 136.5,466.333 134,458.5C 133.333,450.833 133.333,443.167 134,435.5C 135.818,429.182 139.651,424.515 145.5,421.5C 146.298,344.505 181.965,291.171 252.5,261.5C 254.877,249.625 261.877,242.125 273.5,239C 280.57,237.155 287.57,235.655 294.5,234.5 Z"/></g>
<g><path style="opacity:1" fill="#fdb129" d="M 451.5,401.5 C 451.5,407.5 451.5,413.5 451.5,419.5C 354.833,419.5 258.167,419.5 161.5,419.5C 161.5,413.5 161.5,407.5 161.5,401.5C 165.458,358.574 184.291,323.907 218,297.5C 221.793,310.339 225.127,323.339 228,336.5C 232,340.5 236,340.5 240,336.5C 240.875,335.127 241.375,333.627 241.5,332C 237.683,317.572 234.516,303.072 232,288.5C 239.278,283.611 247.111,279.944 255.5,277.5C 261.853,306.579 268.686,335.579 276,364.5C 280,368.5 284,368.5 288,364.5C 288.667,361.5 288.667,358.5 288,355.5C 281.177,327.208 274.51,298.874 268,270.5C 266.604,260.207 271.104,254.041 281.5,252C 300.317,248.299 318.984,248.966 337.5,254C 342.611,256.432 345.277,260.432 345.5,266C 339.22,295.955 332.386,325.788 325,355.5C 322.282,363.758 325.115,367.591 333.5,367C 335.667,366.167 337.167,364.667 338,362.5C 344.659,334.197 351.159,305.864 357.5,277.5C 366.338,279.919 374.338,283.919 381.5,289.5C 378.312,302.92 374.812,316.254 371,329.5C 370.269,339.119 374.269,342.119 383,338.5C 386.959,325.666 390.459,312.666 393.5,299.5C 393.833,298.833 394.167,298.167 394.5,297.5C 428.599,323.683 447.599,358.35 451.5,401.5 Z"/></g>
<g><path style="opacity:1" fill="#da9a2c" d="M 161.5,401.5 C 161.5,407.5 161.5,413.5 161.5,419.5C 258.167,419.5 354.833,419.5 451.5,419.5C 451.5,413.5 451.5,407.5 451.5,401.5C 452.49,407.645 452.823,413.978 452.5,420.5C 355.167,420.5 257.833,420.5 160.5,420.5C 160.177,413.978 160.51,407.645 161.5,401.5 Z"/></g>
<g><path style="opacity:1" fill="#fcb029" d="M 152.5,434.5 C 255.167,434.333 357.834,434.5 460.5,435C 461.931,435.465 463.097,436.299 464,437.5C 464.667,443.833 464.667,450.167 464,456.5C 463.167,457.333 462.333,458.167 461.5,459C 358.167,459.667 254.833,459.667 151.5,459C 150.667,458.167 149.833,457.333 149,456.5C 148.333,450.167 148.333,443.833 149,437.5C 150.145,436.364 151.312,435.364 152.5,434.5 Z"/></g>
</svg>
